PathFileType	4	(X/Y/Z)	E:\3-PhD\Data\MocapData\ElaboratedData\012\pre\dynamicElaborations\RunA1\RunA1.trc
DataRate	CameraRate	NumFrames	NumMarkers	Units	OrigDataRate	DataStartFrame
200	200	4	56	mm	200	473
Frame#	Time	FHD			LBHD			RBHD			C7			T10			CLAV			LSHO			LUUPA			LMUPA			LDUPA			LLEP			LMEP			LRAD			LUL			LRFIN			RSHO			RUPA1			RMUPA			RDUPA			RLEP			RMEP			RRAD			RUL			RUFIN			LASI			RASI			USACR			LSACR			RSACR			LTHI1			LTHI2			LTHI3			LTHI4			LLFC			LTIB1			LTIB2			LTIB3			LTIB4			LHEE			LMT1			LMT5			LMT2			RTHI			RTHI2			RTHI3			RTHI4			RLFC			RTIB1			RTIB2			RTIB3			RTIB4			RLMAL			RHEE			RMT1			RMT2			RMT5		
		X1	Y1	Z1	X2	Y2	Z2	X3	Y3	Z3	X4	Y4	Z4	X5	Y5	Z5	X6	Y6	Z6	X7	Y7	Z7	X8	Y8	Z8	X9	Y9	Z9	X10	Y10	Z10	X11	Y11	Z11	X12	Y12	Z12	X13	Y13	Z13	X14	Y14	Z14	X15	Y15	Z15	X16	Y16	Z16	X17	Y17	Z17	X18	Y18	Z18	X19	Y19	Z19	X20	Y20	Z20	X21	Y21	Z21	X22	Y22	Z22	X23	Y23	Z23	X24	Y24	Z24	X25	Y25	Z25	X26	Y26	Z26	X27	Y27	Z27	X28	Y28	Z28	X29	Y29	Z29	X30	Y30	Z30	X31	Y31	Z31	X32	Y32	Z32	X33	Y33	Z33	X34	Y34	Z34	X35	Y35	Z35	X36	Y36	Z36	X37	Y37	Z37	X38	Y38	Z38	X39	Y39	Z39	X40	Y40	Z40	X41	Y41	Z41	X42	Y42	Z42	X43	Y43	Z43	X44	Y44	Z44	X45	Y45	Z45	X46	Y46	Z46	X47	Y47	Z47	X48	Y48	Z48	X49	Y49	Z49	X50	Y50	Z50	X51	Y51	Z51	X52	Y52	Z52	X53	Y53	Z53	X54	Y54	Z54	X55	Y55	Z55	X56	Y56	Z56	

545	2.720000	-1550.041421	1781.398435	382.640327	-1695.472475	1745.127804	272.416123	-1690.827250	1737.997044	424.939228	-1732.090598	1578.637488	361.707757	-1866.722319	1260.381833	387.102190	-1610.965372	1467.507703	345.799236	-1646.043801	1565.744694	193.912625	-1698.178746	1370.865382	68.833130	-1661.915814	1339.968957	79.612784	-1703.214099	1302.185185	57.660961	-1692.460515	1215.051116	43.685094	-1740.246938	1195.223807	113.317266	-1482.291642	1116.964792	192.365551	-1481.794896	1066.229608	134.058527	-1404.201876	1096.353732	211.681206	-1625.705952	1517.347714	524.560078	-1808.930822	1379.828486	621.031470	-1788.182068	1333.855437	625.297881	-1844.826911	1321.220024	632.674122	-1882.330431	1261.897447	645.652143	-1906.623395	1248.222396	564.907506	-1759.035935	1006.004422	604.449214	-1805.686328	979.928826	662.458006	-1729.910553	920.194061	610.424307	-1798.475881	1035.290489	223.273587	-1767.731678	1001.141717	454.927784	-1928.328042	1132.066990	385.083678	-1951.653357	1107.290594	358.780685	-1940.740170	1101.981384	413.923104	-1869.028224	773.962862	157.547922	-1810.960015	710.932025	151.344799	-1765.306068	722.800392	155.614367	-1822.941665	652.341370	162.712328	-1787.670614	496.884297	177.474727	-1815.233073	320.129391	262.220497	-1860.381434	285.462919	198.166781	-1833.310033	271.914255	233.680288	-1871.991172	208.068800	273.676869	-2031.734604	59.323231	312.808958	-1818.761867	55.615942	314.728408	-1854.139825	40.517925	215.698071	-1812.686848	54.555689	259.346031	-1818.477104	692.666370	511.161971	-1768.740110	646.368271	504.582738	-1736.597458	651.772287	494.373962	-1783.226692	564.924679	489.771410	-1787.589514	474.970657	460.456957	-1895.758920	432.749330	406.933461	-1969.001894	503.874536	446.389057	-1978.786596	464.547897	426.003220	-2021.466959	462.857945	393.482759	-2185.788773	550.228895	380.544977	-2215.007315	604.230566	332.996193	-2241.327751	379.749652	322.282539	-2233.517100	380.980653	366.266744	-2252.383654	424.868623	416.194987	
546	2.725000	-1522.477927	1780.175877	381.591361	-1667.529091	1744.023773	270.823363	-1663.514504	1736.767934	423.311599	-1705.051892	1576.330317	359.104892	-1837.096633	1256.581238	385.960585	-1582.349539	1465.251537	345.595626	-1617.186676	1564.393248	192.850495	-1661.262060	1366.321776	70.885325	-1623.587693	1337.087089	82.457037	-1662.945226	1297.366508	60.383712	-1647.612109	1210.174082	48.619410	-1696.842046	1189.373824	117.101232	-1438.553913	1127.621682	207.085797	-1433.628230	1074.639648	150.977220	-1359.737148	1112.022629	228.934770	-1601.679738	1516.707191	524.975459	-1789.071766	1382.924352	618.029451	-1769.202779	1336.789407	624.240100	-1826.245359	1325.274455	630.163619	-1866.142731	1267.680047	643.510652	-1887.661899	1252.005943	562.625253	-1751.035546	1006.083958	616.688934	-1800.797399	984.121390	673.852584	-1726.278170	919.184051	626.130959	-1771.354611	1031.604410	221.094756	-1737.522479	998.027913	452.020822	-1898.568214	1130.908791	384.416036	-1922.419970	1106.485670	358.219710	-1910.803626	1100.687568	413.281114	-1848.566397	771.715470	157.572001	-1792.446768	707.052486	151.229776	-1746.439575	717.447582	155.735928	-1806.234520	648.720558	162.865865	-1776.160818	491.655187	177.933014	-1808.792482	315.678266	263.168886	-1855.102774	282.360578	199.351434	-1828.264922	268.022203	234.832555	-1868.979959	205.375337	274.975500	-2031.990094	59.624141	314.349038	-1818.853348	55.720624	315.311225	-1854.465887	41.048248	216.307597	-1813.018281	54.771609	259.880085	-1775.779092	694.255136	511.341806	-1723.958590	650.380152	504.553704	-1692.384198	656.999791	493.518210	-1734.899325	568.074625	490.396142	-1735.144639	478.382771	460.789468	-1842.767150	433.742443	407.830701	-1916.997698	503.194037	448.263789	-1925.258392	463.563683	428.028712	-1969.225800	460.807915	395.764153	-2134.843357	544.158735	384.405754	-2167.516026	596.770946	336.730108	-2186.007320	371.686488	327.359516	-2176.960633	373.313773	371.172757	-2196.488846	416.722161	421.426732	
547	2.730000	-1494.964560	1779.141637	380.731674	-1639.655025	1743.062450	269.457234	-1636.207953	1735.647096	421.916524	-1677.919268	1574.164475	356.657658	-1807.373060	1252.957024	384.708791	-1553.645988	1463.301972	345.567939	-1588.083020	1563.478143	192.271616	-1624.284799	1362.731339	73.038727	-1585.351113	1335.129511	85.364418	-1622.844897	1293.628677	63.269916	-1603.025332	1206.638894	53.847662	-1653.610432	1184.890132	121.295250	-1396.043149	1139.605881	221.461222	-1386.683610	1084.740544	167.696301	-1316.870365	1128.913950	245.857503	-1577.592777	1516.286384	525.419252	-1769.271732	1386.621855	614.838744	-1750.367628	1340.497090	623.306269	-1807.766024	1330.066584	627.538639	-1849.870560	1274.101006	641.297434	-1868.609421	1256.270821	560.533112	-1742.437288	1008.238076	628.537763	-1795.192850	990.111189	684.316576	-1721.797461	920.673976	641.336959	-1744.050471	1027.792752	218.903116	-1707.331581	994.986305	448.998985	-1868.700353	1129.936329	383.632471	-1893.137248	1105.853356	357.457544	-1880.782858	1099.594227	412.524264	-1828.231746	769.774052	157.665711	-1774.217078	703.461931	151.183421	-1727.899997	712.388563	155.799549	-1789.857485	645.499914	163.058624	-1765.122272	487.113829	178.354379	-1802.575271	311.830603	263.808379	-1850.209032	279.988877	200.294788	-1823.498179	264.837574	235.586353	-1865.980480	203.312538	275.832763	-2032.144227	60.671191	315.678672	-1818.886609	55.932526	315.769006	-1854.716506	41.530354	216.889493	-1813.245571	54.984905	260.302236	-1733.086795	696.821312	511.409736	-1679.290514	655.475739	504.333442	-1648.355637	663.319665	492.452865	-1686.568669	572.515580	490.943667	-1682.766622	483.069158	460.945752	-1789.621411	435.281715	408.660779	-1865.160899	502.740129	449.939968	-1871.840053	462.730411	429.896493	-1916.862145	458.524265	397.919972	-2083.974757	536.914855	388.410703	-2120.375001	587.726968	340.346683	-2129.883584	362.251933	332.427933	-2119.719671	364.427506	376.018941	-2140.181858	407.308026	426.523832	
548	2.735000	-1467.493247	1778.331028	380.064867	-1611.855875	1742.250066	268.345456	-1608.892294	1734.665660	420.779359	-1650.663914	1572.204184	354.401002	-1777.571665	1249.611205	383.284640	-1524.881604	1461.739371	345.707959	-1558.694797	1563.041170	192.171208	-1587.280836	1360.113461	75.253008	-1547.272630	1334.078829	88.311682	-1583.027675	1290.967074	66.295123	-1558.898503	1204.420856	59.321505	-1610.729889	1181.783454	125.878728	-1354.864593	1152.720337	235.372169	-1341.131169	1096.343102	184.050511	-1275.684120	1146.795692	262.280596	-1553.367090	1516.097993	525.858871	-1749.389392	1390.960574	611.391920	-1731.562208	1345.044856	622.386369	-1789.251626	1335.650449	624.725431	-1833.365601	1281.202018	638.987463	-1849.368047	1261.085727	558.606530	-1733.063260	1012.345267	639.857407	-1788.696321	997.723169	693.739172	-1716.237956	924.493440	655.916836	-1716.461516	1023.968359	216.677981	-1677.126471	992.101866	445.914429	-1838.722754	1129.095509	382.755316	-1863.782778	1105.326320	356.538004	-1850.671672	1098.672763	411.697448	-1807.958524	768.095227	157.824119	-1756.254401	700.103677	151.182164	-1709.671283	707.527233	155.761855	-1773.812960	642.637065	163.287058	-1754.544961	483.209101	178.704497	-1796.615785	308.603303	264.159131	-1845.618039	278.292394	200.969573	-1818.977817	262.333781	235.974724	-1863.017641	201.873231	276.291391	-2032.212422	62.427309	316.701872	-1818.892327	56.172752	316.104352	-1854.905334	41.929029	217.413816	-1813.378244	55.128758	260.623534	-1690.558127	700.380022	511.337624	-1634.902627	661.663813	503.916177	-1604.664589	670.733121	491.201541	-1638.407332	578.275515	491.390557	-1630.633552	489.014865	460.919826	-1736.414867	437.389276	409.433277	-1813.580617	502.504528	451.389214	-1818.622251	462.080518	431.597149	-1864.425439	456.043621	399.898989	-2033.193619	528.521373	392.461234	-2073.471548	577.113520	343.809010	-2072.915044	351.580637	337.454814	-2061.799097	354.459291	380.783279	-2083.443570	396.757050	431.448133	
